<?xml version="1.0" encoding="UTF-8" standalone="no"?>
<!DOCTYPE svg PUBLIC "-//W3C//DTD SVG 1.1//EN"
 "http://www.w3.org/Graphics/SVG/1.1/DTD/svg11.dtd">
<!-- Generated by graphviz version 2.43.0 (0)
 -->
<!-- Title: %3 Pages: 1 -->
<svg width="1345pt" height="499pt"
 viewBox="0.00 0.00 1345.28 499.17" xmlns="http://www.w3.org/2000/svg" xmlns:xlink="http://www.w3.org/1999/xlink">
<g id="graph0" class="graph" transform="scale(1 1) rotate(0) translate(4 495.17)">
<title>%3</title>
<polygon fill="white" stroke="transparent" points="-4,4 -4,-495.17 1341.28,-495.17 1341.28,4 -4,4"/>
<!-- HomeD -->
<g id="node1" class="node">
<title>HomeD</title>
<ellipse fill="none" stroke="black" cx="385.98" cy="-362.3" rx="51.74" ry="26.74"/>
<text text-anchor="middle" x="385.98" y="-366.1" font-family="Times,serif" font-size="14.00">Home</text>
<text text-anchor="middle" x="385.98" y="-351.1" font-family="Times,serif" font-size="14.00">(Driver)</text>
</g>
<!-- HomeD&#45;&gt;HomeD -->
<g id="edge6" class="edge">
<title>HomeD&#45;&gt;HomeD</title>
<path fill="none" stroke="black" d="M434.46,-371.92C446.56,-371.25 455.6,-368.04 455.6,-362.3 455.6,-358.36 451.33,-355.61 444.72,-354.06"/>
<polygon fill="black" stroke="black" points="444.84,-350.54 434.46,-352.69 443.91,-357.48 444.84,-350.54"/>
<text text-anchor="middle" x="490.6" y="-358.6" font-family="Times,serif" font-size="14.00">FeedBack</text>
</g>
<!-- SchD -->
<g id="node3" class="node">
<title>SchD</title>
<ellipse fill="none" stroke="black" cx="57.98" cy="-257.56" rx="57.97" ry="26.74"/>
<text text-anchor="middle" x="57.98" y="-261.36" font-family="Times,serif" font-size="14.00">Schedule</text>
<text text-anchor="middle" x="57.98" y="-246.36" font-family="Times,serif" font-size="14.00">(Driver)</text>
</g>
<!-- HomeD&#45;&gt;SchD -->
<g id="edge3" class="edge">
<title>HomeD&#45;&gt;SchD:n</title>
<path fill="none" stroke="black" d="M334.37,-359.8C247.78,-355.96 80.63,-342.36 60.07,-294.48"/>
<polygon fill="black" stroke="black" points="63.45,-293.51 57.98,-284.43 56.59,-294.94 63.45,-293.51"/>
<text text-anchor="middle" x="130.98" y="-306.23" font-family="Times,serif" font-size="14.00">ViewSchedule</text>
</g>
<!-- Man -->
<g id="node5" class="node">
<title>Man</title>
<ellipse fill="none" stroke="black" cx="202.98" cy="-257.56" rx="69.09" ry="26.74"/>
<text text-anchor="middle" x="202.98" y="-261.36" font-family="Times,serif" font-size="14.00">Manual</text>
<text text-anchor="middle" x="202.98" y="-246.36" font-family="Times,serif" font-size="14.00">Verification</text>
</g>
<!-- HomeD&#45;&gt;Man -->
<g id="edge5" class="edge">
<title>HomeD&#45;&gt;Man</title>
<path fill="none" stroke="black" d="M351.56,-341.98C323.01,-325.95 282.11,-302.99 250.45,-285.21"/>
<polygon fill="black" stroke="black" points="251.79,-281.95 241.36,-280.11 248.37,-288.06 251.79,-281.95"/>
</g>
<!-- Scan -->
<g id="node6" class="node">
<title>Scan</title>
<ellipse fill="none" stroke="black" cx="464.98" cy="-257.56" rx="53.98" ry="26.74"/>
<text text-anchor="middle" x="464.98" y="-261.36" font-family="Times,serif" font-size="14.00">Scan</text>
<text text-anchor="middle" x="464.98" y="-246.36" font-family="Times,serif" font-size="14.00">QR code</text>
</g>
<!-- HomeD&#45;&gt;Scan -->
<g id="edge4" class="edge">
<title>HomeD&#45;&gt;Scan</title>
<path fill="none" stroke="black" d="M404.5,-337.22C415.13,-323.4 428.6,-305.88 440.13,-290.89"/>
<polygon fill="black" stroke="black" points="442.98,-292.92 446.3,-282.86 437.43,-288.65 442.98,-292.92"/>
</g>
<!-- HomeP -->
<g id="node2" class="node">
<title>HomeP</title>
<ellipse fill="none" stroke="black" cx="978.98" cy="-362.3" rx="71.34" ry="26.74"/>
<text text-anchor="middle" x="978.98" y="-366.1" font-family="Times,serif" font-size="14.00">Home</text>
<text text-anchor="middle" x="978.98" y="-351.1" font-family="Times,serif" font-size="14.00">(Passenger)</text>
</g>
<!-- HomeP&#45;&gt;HomeP -->
<g id="edge17" class="edge">
<title>HomeP&#45;&gt;HomeP</title>
<path fill="none" stroke="black" d="M1046.06,-371.62C1059.12,-370.54 1068.4,-367.43 1068.4,-362.3 1068.4,-358.62 1063.61,-355.98 1056.06,-354.38"/>
<polygon fill="black" stroke="black" points="1056.44,-350.9 1046.06,-352.99 1055.48,-357.83 1056.44,-350.9"/>
<text text-anchor="middle" x="1103.4" y="-358.6" font-family="Times,serif" font-size="14.00">FeedBack</text>
</g>
<!-- SchP -->
<g id="node4" class="node">
<title>SchP</title>
<ellipse fill="none" stroke="black" cx="711.98" cy="-257.56" rx="71.34" ry="26.74"/>
<text text-anchor="middle" x="711.98" y="-261.36" font-family="Times,serif" font-size="14.00">Schedule</text>
<text text-anchor="middle" x="711.98" y="-246.36" font-family="Times,serif" font-size="14.00">(Passenger)</text>
</g>
<!-- HomeP&#45;&gt;SchP -->
<g id="edge14" class="edge">
<title>HomeP&#45;&gt;SchP:nw</title>
<path fill="none" stroke="black" d="M911.03,-353.99C823.65,-343.4 682.95,-321.85 682.43,-292.81"/>
<polygon fill="black" stroke="black" points="685.71,-294.08 686.98,-283.56 679.43,-290.99 685.71,-294.08"/>
<text text-anchor="middle" x="765.98" y="-306.23" font-family="Times,serif" font-size="14.00">ViewSchedule</text>
</g>
<!-- THist -->
<g id="node11" class="node">
<title>THist</title>
<ellipse fill="none" stroke="black" cx="978.98" cy="-257.56" rx="49.49" ry="26.74"/>
<text text-anchor="middle" x="978.98" y="-261.36" font-family="Times,serif" font-size="14.00">Travel</text>
<text text-anchor="middle" x="978.98" y="-246.36" font-family="Times,serif" font-size="14.00">History</text>
</g>
<!-- HomeP&#45;&gt;THist -->
<g id="edge15" class="edge">
<title>HomeP&#45;&gt;THist</title>
<path fill="none" stroke="black" d="M978.98,-335.38C978.98,-323.09 978.98,-308.2 978.98,-294.81"/>
<polygon fill="black" stroke="black" points="982.48,-294.48 978.98,-284.48 975.48,-294.48 982.48,-294.48"/>
<text text-anchor="middle" x="1028.48" y="-306.23" font-family="Times,serif" font-size="14.00">TravelHistory</text>
</g>
<!-- BHist -->
<g id="node12" class="node">
<title>BHist</title>
<ellipse fill="none" stroke="black" cx="1129.98" cy="-257.56" rx="83.39" ry="18"/>
<text text-anchor="middle" x="1129.98" y="-253.86" font-family="Times,serif" font-size="14.00">BookingHistory</text>
</g>
<!-- HomeP&#45;&gt;BHist -->
<g id="edge16" class="edge">
<title>HomeP&#45;&gt;BHist</title>
<path fill="none" stroke="black" d="M1032.18,-344.35C1049.05,-337.53 1067.15,-328.59 1081.98,-317.43 1094.25,-308.21 1105.28,-295.21 1113.66,-283.78"/>
<polygon fill="black" stroke="black" points="1116.65,-285.62 1119.54,-275.42 1110.92,-281.59 1116.65,-285.62"/>
<text text-anchor="middle" x="1153.98" y="-306.23" font-family="Times,serif" font-size="14.00">BookingHistory</text>
</g>
<!-- Penalties -->
<g id="node14" class="node">
<title>Penalties</title>
<ellipse fill="none" stroke="black" cx="1283.98" cy="-257.56" rx="53.09" ry="18"/>
<text text-anchor="middle" x="1283.98" y="-253.86" font-family="Times,serif" font-size="14.00">Penalties</text>
</g>
<!-- HomeP&#45;&gt;Penalties -->
<g id="edge18" class="edge">
<title>HomeP&#45;&gt;Penalties</title>
<path fill="none" stroke="black" d="M1049.48,-357.57C1097.73,-352.8 1162.12,-341.97 1213.98,-317.43 1231.93,-308.94 1249.05,-294.7 1261.86,-282.35"/>
<polygon fill="black" stroke="black" points="1264.65,-284.52 1269.25,-274.98 1259.7,-279.56 1264.65,-284.52"/>
<text text-anchor="middle" x="1269.98" y="-306.23" font-family="Times,serif" font-size="14.00">Penalties</text>
</g>
<!-- JourneyD -->
<g id="node7" class="node">
<title>JourneyD</title>
<ellipse fill="none" stroke="black" cx="57.98" cy="-142.22" rx="51.74" ry="37.45"/>
<text text-anchor="middle" x="57.98" y="-153.52" font-family="Times,serif" font-size="14.00">View</text>
<text text-anchor="middle" x="57.98" y="-138.52" font-family="Times,serif" font-size="14.00">Journey</text>
<text text-anchor="middle" x="57.98" y="-123.52" font-family="Times,serif" font-size="14.00">(Driver)</text>
</g>
<!-- SchD&#45;&gt;JourneyD -->
<g id="edge7" class="edge">
<title>SchD&#45;&gt;JourneyD</title>
<path fill="none" stroke="black" d="M57.98,-230.56C57.98,-218.58 57.98,-203.99 57.98,-190.18"/>
<polygon fill="black" stroke="black" points="61.48,-189.84 57.98,-179.84 54.48,-189.84 61.48,-189.84"/>
<text text-anchor="middle" x="85.48" y="-201.49" font-family="Times,serif" font-size="14.00">Journey</text>
</g>
<!-- SchP&#45;&gt;SchP -->
<g id="edge20" class="edge">
<title>SchP&#45;&gt;SchP</title>
<path fill="none" stroke="black" d="M779.06,-266.88C792.12,-265.8 801.4,-262.69 801.4,-257.56 801.4,-253.88 796.61,-251.24 789.06,-249.64"/>
<polygon fill="black" stroke="black" points="789.44,-246.16 779.06,-248.25 788.48,-253.09 789.44,-246.16"/>
<text text-anchor="middle" x="856.4" y="-261.36" font-family="Times,serif" font-size="14.00">CancelBooking</text>
<text text-anchor="middle" x="856.4" y="-246.36" font-family="Times,serif" font-size="14.00">GenerateTicket</text>
</g>
<!-- JourneyP -->
<g id="node8" class="node">
<title>JourneyP</title>
<ellipse fill="none" stroke="black" cx="711.98" cy="-142.22" rx="71.34" ry="37.45"/>
<text text-anchor="middle" x="711.98" y="-153.52" font-family="Times,serif" font-size="14.00">View</text>
<text text-anchor="middle" x="711.98" y="-138.52" font-family="Times,serif" font-size="14.00">Journey</text>
<text text-anchor="middle" x="711.98" y="-123.52" font-family="Times,serif" font-size="14.00">(Passenger)</text>
</g>
<!-- SchP&#45;&gt;JourneyP -->
<g id="edge19" class="edge">
<title>SchP&#45;&gt;JourneyP</title>
<path fill="none" stroke="black" d="M684.38,-232.57C676.08,-222.43 670.08,-210.11 673.98,-197.69 675.25,-193.67 676.93,-189.69 678.87,-185.81"/>
<polygon fill="black" stroke="black" points="681.98,-187.43 683.84,-177 675.88,-183.99 681.98,-187.43"/>
<text text-anchor="middle" x="701.48" y="-201.49" font-family="Times,serif" font-size="14.00">Journey</text>
</g>
<!-- Man&#45;&gt;Man -->
<g id="edge13" class="edge">
<title>Man&#45;&gt;Man</title>
<path fill="none" stroke="black" d="M268.08,-266.91C281.04,-265.86 290.28,-262.74 290.28,-257.56 290.28,-253.84 285.51,-251.18 278.01,-249.59"/>
<polygon fill="black" stroke="black" points="278.47,-246.12 268.08,-248.22 277.51,-253.06 278.47,-246.12"/>
<text text-anchor="middle" x="341.78" y="-253.86" font-family="Times,serif" font-size="14.00">MarkBoarding</text>
</g>
<!-- Scan&#45;&gt;Scan -->
<g id="edge12" class="edge">
<title>Scan&#45;&gt;Scan</title>
<path fill="none" stroke="black" d="M515.27,-267.16C527.57,-266.45 536.72,-263.25 536.72,-257.56 536.72,-253.56 532.2,-250.8 525.23,-249.26"/>
<polygon fill="black" stroke="black" points="525.63,-245.78 515.27,-247.97 524.73,-252.72 525.63,-245.78"/>
<text text-anchor="middle" x="579.72" y="-253.86" font-family="Times,serif" font-size="14.00">VerifyTicket</text>
</g>
<!-- LocationD -->
<g id="node10" class="node">
<title>LocationD</title>
<ellipse fill="none" stroke="black" cx="57.98" cy="-26.87" rx="51.74" ry="26.74"/>
<text text-anchor="middle" x="57.98" y="-30.67" font-family="Times,serif" font-size="14.00">Map</text>
<text text-anchor="middle" x="57.98" y="-15.67" font-family="Times,serif" font-size="14.00">(Driver)</text>
</g>
<!-- JourneyD&#45;&gt;LocationD -->
<g id="edge8" class="edge">
<title>JourneyD&#45;&gt;LocationD</title>
<path fill="none" stroke="black" d="M57.98,-104.73C57.98,-91.66 57.98,-76.94 57.98,-63.9"/>
<polygon fill="black" stroke="black" points="61.48,-63.87 57.98,-53.87 54.48,-63.87 61.48,-63.87"/>
<text text-anchor="middle" x="129.98" y="-75.54" font-family="Times,serif" font-size="14.00">UpdateLiveLocation</text>
</g>
<!-- JourneyP&#45;&gt;SchP -->
<g id="edge21" class="edge">
<title>JourneyP&#45;&gt;SchP</title>
<path fill="none" stroke="black" d="M726.75,-179.11C729.55,-189.86 731.04,-201.71 728.98,-212.69 728.45,-215.55 727.73,-218.47 726.9,-221.36"/>
<polygon fill="black" stroke="black" points="723.51,-220.45 723.69,-231.05 730.16,-222.66 723.51,-220.45"/>
<text text-anchor="middle" x="747.98" y="-201.49" font-family="Times,serif" font-size="14.00">Book</text>
</g>
<!-- LocationP -->
<g id="node9" class="node">
<title>LocationP</title>
<ellipse fill="none" stroke="black" cx="711.98" cy="-26.87" rx="71.34" ry="26.74"/>
<text text-anchor="middle" x="711.98" y="-30.67" font-family="Times,serif" font-size="14.00">Map</text>
<text text-anchor="middle" x="711.98" y="-15.67" font-family="Times,serif" font-size="14.00">(Passenger)</text>
</g>
<!-- JourneyP&#45;&gt;LocationP -->
<g id="edge9" class="edge">
<title>JourneyP&#45;&gt;LocationP</title>
<path fill="none" stroke="black" d="M711.98,-104.73C711.98,-91.66 711.98,-76.94 711.98,-63.9"/>
<polygon fill="black" stroke="black" points="715.48,-63.87 711.98,-53.87 708.48,-63.87 715.48,-63.87"/>
<text text-anchor="middle" x="770.48" y="-75.54" font-family="Times,serif" font-size="14.00">GetLiveLocation</text>
</g>
<!-- LocationP&#45;&gt;LocationP -->
<g id="edge11" class="edge">
<title>LocationP&#45;&gt;LocationP</title>
<path fill="none" stroke="black" d="M779.06,-36.19C792.12,-35.1 801.4,-32 801.4,-26.87 801.4,-23.18 796.61,-20.54 789.06,-18.95"/>
<polygon fill="black" stroke="black" points="789.44,-15.47 779.06,-17.55 788.48,-22.4 789.44,-15.47"/>
<text text-anchor="middle" x="859.9" y="-23.17" font-family="Times,serif" font-size="14.00">GetLiveLocation</text>
</g>
<!-- LocationD&#45;&gt;LocationD -->
<g id="edge10" class="edge">
<title>LocationD&#45;&gt;LocationD</title>
<path fill="none" stroke="black" d="M106.46,-36.49C118.56,-35.81 127.6,-32.61 127.6,-26.87 127.6,-22.92 123.33,-20.18 116.72,-18.63"/>
<polygon fill="black" stroke="black" points="116.84,-15.11 106.46,-17.25 115.91,-22.05 116.84,-15.11"/>
<text text-anchor="middle" x="199.6" y="-23.17" font-family="Times,serif" font-size="14.00">UpdateLiveLocation</text>
</g>
<!-- Login -->
<g id="node13" class="node">
<title>Login</title>
<ellipse fill="none" stroke="black" cx="641.98" cy="-473.17" rx="36.29" ry="18"/>
<text text-anchor="middle" x="641.98" y="-469.47" font-family="Times,serif" font-size="14.00">Login</text>
</g>
<!-- Login&#45;&gt;HomeD -->
<g id="edge1" class="edge">
<title>Login&#45;&gt;HomeD:n</title>
<path fill="none" stroke="black" d="M606.92,-468.25C542.02,-460.07 407.93,-438.6 388.38,-399.04"/>
<polygon fill="black" stroke="black" points="391.75,-398.06 385.98,-389.17 384.94,-399.72 391.75,-398.06"/>
<text text-anchor="middle" x="490.98" y="-418.47" font-family="Times,serif" font-size="14.00">LoginDriver</text>
</g>
<!-- Login&#45;&gt;HomeP -->
<g id="edge2" class="edge">
<title>Login&#45;&gt;HomeP:n</title>
<path fill="none" stroke="black" d="M678.37,-470.88C760.57,-467.04 955.21,-452.36 976.99,-399.18"/>
<polygon fill="black" stroke="black" points="980.46,-399.66 978.98,-389.17 973.6,-398.3 980.46,-399.66"/>
<text text-anchor="middle" x="1037.48" y="-425.97" font-family="Times,serif" font-size="14.00">LoginPassenger</text>
<text text-anchor="middle" x="1037.48" y="-410.97" font-family="Times,serif" font-size="14.00">RegisterPassenger</text>
</g>
</g>
</svg>
